:SAMPLES-PER-SECOND 30
:FULLY-SPECIFIED
:DEGREES
34
root  2.14634 39.6876 5.28991 -141.955 -81.2132 134.594
RightUpLeg  3.21101 -4.67982 -22.3953
RightLeg  10.5666 -9.22734 -3.74034
RightFoot  3.82673 -2.39792 18.0738
RightToes  -6.40286e-010 0 -3.6325e-017
Spine  10.7231 3.23833 0.756386
Spine1  -0.447261 5.01712 -11.9907
HEad  -4.22266 -14.19 -0.0423448
LeftShoulder1  3.14002 -7.03457 -23.5632
LeftArm  7.02476 4.10884 -48.6303
LeftForeArm  1.62982 -7.88474 -14.6611
LeftHand  -0.33984 1.93884 11.2844
RightShoulder  1.81084 3.68535 18.7308
RightArm  8.55014 -1.36551 61.2261
RightForeArm  25.6252 2.94486 16.3249
RightHand  -0.108659 -4.44733 -11.5164
LeftUpLeg  2.23719 7.26002 -1.0995
LeftLeg  10.4062 11.6177 1.86656
LeftFoot  -3.30893 0.592357 -8.14638
LeftToes  -2.09187e-010 -4.93792e-011 -8.21189e-011
35
root  2.05988 39.6414 5.60908 -146.207 -80.6982 138.716
RightUpLeg  1.32053 -1.18168 -22.5065
RightLeg  13.8312 -13.0981 -4.15194
RightFoot  5.42374 -2.70835 18.4852
RightToes  -6.40286e-010 0 -3.6325e-017
Spine  11.0946 3.13934 0.150383
Spine1  -0.61601 4.75645 -11.9652
HEad  -4.49233 -12.7079 -0.959241
LeftShoulder1  3.15689 -7.16442 -23.3479
LeftArm  5.07141 3.67689 -48.2289
LeftForeArm  3.99084 -6.2198 -15.0762
LeftHand  -0.319257 2.1493 11.2465
RightShoulder  1.80677 3.67836 18.6961
RightArm  15.3283 -1.09625 62.6608
RightForeArm  22.6454 5.5644 16.1349
RightHand  -0.11567 -4.32021 -10.9124
LeftUpLeg  2.15272 7.39495 -1.41233
LeftLeg  11.316 12.3681 2.14116
LeftFoot  -4.05492 0.529106 -7.91987
LeftToes  -2.09187e-010 -4.93792e-011 -8.21189e-011
36
root  2.00449 39.597 5.8646 -150.515 -80.3867 142.867
RightUpLeg  -0.692833 -0.689165 -22.6012
RightLeg  17.2174 -13.4446 -4.77342
RightFoot  6.98277 -3.07722 19.2095
RightToes  -6.40286e-010 0 -3.6325e-017
Spine  11.5544 2.88309 -0.585309
Spine1  -0.765076 4.26877 -11.6776
HEad  -5.08224 -11.1901 -1.61092
LeftShoulder1  3.14709 -7.28581 -22.9
LeftArm  3.66342 3.48987 -47.9777
LeftForeArm  6.01684 -4.80061 -15.3489
LeftHand  -0.280887 2.51303 11.0643
RightShoulder  1.80215 3.69094 18.5788
RightArm  23.8784 -1.07324 64.0033
RightForeArm  17.2448 9.53567 15.0007
RightHand  -0.127353 -4.14498 -10.504
LeftUpLeg  1.98799 7.63615 -1.40183
LeftLeg  12.3524 12.6989 2.45016
LeftFoot  -4.75943 0.470879 -7.68644
LeftToes  -2.09187e-010 -4.93792e-011 -8.21189e-011
37
root  1.97118 39.5635 6.06994 -154.79 -80.1608 146.944
RightUpLeg  -2.64007 -1.37698 -22.6634
RightLeg  20.3354 -11.9021 -5.03075
RightFoot  8.58251 -3.41733 19.628
RightToes  -6.40286e-010 0 -3.6325e-017
Spine  12.0669 2.56539 -1.43686
Spine1  -0.833267 3.66483 -11.0297
HEad  -5.86869 -9.74652 -2.10424
LeftShoulder1  3.137 -7.37305 -22.5541
LeftArm  2.73489 3.15473 -47.6573
LeftForeArm  8.03051 -3.24372 -15.6397
LeftHand  -0.26061 2.74434 11.1017
RightShoulder  1.80908 3.75263 18.4508
RightArm  33.637 -1.26966 65.0049
RightForeArm  9.88043 14.2286 12.5298
RightHand  -0.152625 -3.86506 -10.5773
LeftUpLeg  1.86823 7.90434 -1.19077
LeftLeg  13.3328 12.8723 2.76505
LeftFoot  -5.41871 0.424324 -7.56933
LeftToes  -2.09187e-010 -4.93792e-011 -8.21189e-011
38
root  1.94292 39.5473 6.23574 -158.749 -79.9736 150.707
RightUpLeg  -4.38437 -1.98872 -22.6921
RightLeg  22.9962 -9.81877 -4.74169
RightFoot  10.501 -3.47022 18.2458
RightToes  -6.40286e-010 0 -3.6325e-017
Spine  12.5155 2.25635 -2.26944
Spine1  -0.774931 3.06221 -10.1119
HEad  -6.7282 -8.4358 -2.56559
LeftShoulder1  3.15239 -7.4817 -22.4004
LeftArm  2.31688 2.60941 -47.2247
LeftForeArm  9.73237 -1.64015 -15.9468
LeftHand  -0.252178 2.85226 11.1717
RightShoulder  1.80936 3.79092 18.3125
RightArm  41.7448 -1.55518 65.5987
RightForeArm  3.24051 18.2727 9.30196
RightHand  -0.202914 -3.41843 -11.2502
LeftUpLeg  1.86424 8.14662 -0.891604
LeftLeg  14.038 13.0565 3.0247
LeftFoot  -5.92327 0.392569 -7.5401
LeftToes  -2.09187e-010 -4.93792e-011 -8.21189e-011
39
root  1.90474 39.5361 6.35387 -162.145 -79.7795 153.925
RightUpLeg  -5.765 -2.26935 -22.6837
RightLeg  25.0451 -7.2771 -3.90207
RightFoot  11.8844 -3.10512 15.4165
RightToes  -6.40286e-010 0 -3.6325e-017
Spine  12.8377 2.03176 -2.94051
Spine1  -0.606619 2.60101 -9.34002
HEad  -7.53843 -7.35789 -2.93823
LeftShoulder1  3.18408 -7.65218 -22.237
LeftArm  2.61131 2.04349 -46.7967
LeftForeArm  10.513 -0.532126 -16.2167
LeftHand  -0.218136 3.14846 10.7964
RightShoulder  1.79212 3.75956 18.1714
RightArm  45.8099 -1.83876 65.8888
RightForeArm  -0.66144 20.9328 6.75831
RightHand  -0.281793 -2.82404 -12.3383
LeftUpLeg  1.95351 8.39811 -0.559291
LeftLeg  14.5362 13.1647 3.192
LeftFoot  -6.29473 0.368383 -7.49688
LeftToes  -2.09187e-010 -4.93792e-011 -8.21189e-011
40
root  1.84642 39.5319 6.41788 -164.749 -79.6016 156.379
RightUpLeg  -6.52655 -2.32103 -22.6476
RightLeg  26.0435 -4.07395 -2.38067
RightFoot  11.3287 -2.61348 13.37
RightToes  -6.40286e-010 0 -3.6325e-017
Spine  13.0256 1.89914 -3.30074
Spine1  -0.445087 2.34874 -9.02141
HEad  -8.04219 -6.68312 -3.15693
LeftShoulder1  3.19361 -7.81818 -21.8817
LeftArm  3.62606 1.50899 -46.4391
LeftForeArm  10.5038 -0.0636156 -16.4634
LeftHand  -0.167176 3.59855 10.0836
RightShoulder  1.77722 3.71861 18.0968
RightArm  46.3035 -2.17176 65.9957
RightForeArm  -2.5284 22.3983 5.59533
RightHand  -0.366447 -2.26367 -13.3741
LeftUpLeg  2.14936 8.68908 -0.191432
LeftLeg  14.8185 13.1076 3.20264
LeftFoot  -6.5889 0.348144 -7.4322
LeftToes  -2.09187e-010 -4.93792e-011 -8.21189e-011
41
root  1.76229 39.5575 6.43873 -166.376 -79.5793 157.968
RightUpLeg  -6.46363 -2.40249 -22.515
RightLeg  25.3037 -0.429713 -0.44827
RightFoot  8.97722 -2.29679 13.1251
RightToes  -6.40286e-010 0 -3.6325e-017
Spine  13.0393 1.77306 -3.24456
Spine1  -0.413799 2.2462 -9.06405
HEad  -7.97235 -6.5117 -3.36806
LeftShoulder1  3.16265 -7.88799 -21.4082
LeftArm  5.0449 0.942323 -46.1155
LeftForeArm  10.4193 0.0613134 -16.6884
LeftHand  -0.145482 3.79815 9.69259
RightShoulder  1.77836 3.72854 18.1066
RightArm  45.3106 -2.64117 66.0067
RightForeArm  -3.85507 22.983 5.36383
RightHand  -0.416103 -1.95233 -13.8778
LeftUpLeg  2.46763 8.91644 0.164626
LeftLeg  14.6373 12.9589 3.03959
LeftFoot  -6.69391 0.339545 -7.37342
LeftToes  -2.09187e-010 -4.93792e-011 -8.21189e-011
42
root  1.65625 39.6136 6.42173 -166.981 -79.8077 158.713
RightUpLeg  -5.60528 -2.40086 -22.2074
RightLeg  22.5116 2.27072 0.827337
RightFoot  6.42288 -2.08709 13.5796
RightToes  -6.40286e-010 0 -3.6325e-017
Spine  12.8599 1.61941 -2.86087
Spine1  -0.538195 2.22035 -9.24054
HEad  -7.34405 -6.76393 -3.74281
LeftShoulder1  3.11809 -7.87404 -21.0271
LeftArm  6.26071 0.442268 -45.7886
LeftForeArm  10.6792 -0.0554628 -16.8137
LeftHand  -0.160407 3.64647 9.87886
RightShoulder  1.77833 3.75794 18.1154
RightArm  44.3525 -3.22445 65.9757
RightForeArm  -4.81594 22.8721 5.47272
RightHand  -0.417079 -1.9271 -13.8043
LeftUpLeg  2.79806 8.94808 0.410088
LeftLeg  13.9968 12.7861 2.82958
LeftFoot  -6.52366 0.347236 -7.31959
LeftToes  -2.09187e-010 -4.93792e-011 -8.21189e-011
